<svg width="128" height="128" viewBox="0 0 128 128" fill="none" xmlns="http://www.w3.org/2000/svg">
  <!-- Background circle with gradient -->
  <defs>
    <linearGradient id="bgGradient" x1="0%" y1="0%" x2="100%" y2="100%">
      <stop offset="0%" style="stop-color:#667eea;stop-opacity:1" />
      <stop offset="100%" style="stop-color:#764ba2;stop-opacity:1" />
    </linearGradient>
    <linearGradient id="screenGradient" x1="0%" y1="0%" x2="100%" y2="100%">
      <stop offset="0%" style="stop-color:#ffffff;stop-opacity:0.95" />
      <stop offset="100%" style="stop-color:#f8fafc;stop-opacity:0.95" />
    </linearGradient>
    <linearGradient id="aiGradient" x1="0%" y1="0%" x2="100%" y2="100%">
      <stop offset="0%" style="stop-color:#10b981;stop-opacity:1" />
      <stop offset="100%" style="stop-color:#059669;stop-opacity:1" />
    </linearGradient>
  </defs>
  
  <!-- Main background circle -->
  <circle cx="64" cy="64" r="60" fill="url(#bgGradient)" stroke="#ffffff" stroke-width="2"/>
  
  <!-- Screen/monitor outline -->
  <rect x="32" y="40" width="64" height="40" rx="4" fill="url(#screenGradient)" stroke="#ffffff" stroke-width="2"/>
  
  <!-- Screen content lines (representing text/content) -->
  <rect x="38" y="48" width="44" height="2" rx="1" fill="#cbd5e1"/>
  <rect x="38" y="54" width="36" height="2" rx="1" fill="#cbd5e1"/>
  <rect x="38" y="60" width="40" height="2" rx="1" fill="#cbd5e1"/>
  <rect x="38" y="66" width="32" height="2" rx="1" fill="#cbd5e1"/>
  
  <!-- Monitor stand -->
  <rect x="60" y="80" width="8" height="12" fill="#ffffff"/>
  <rect x="56" y="92" width="16" height="4" rx="2" fill="#ffffff"/>
  
  <!-- AI brain/neural network icon -->
  <g transform="translate(88, 32)">
    <!-- Central node -->
    <circle cx="0" cy="0" r="6" fill="url(#aiGradient)"/>
    
    <!-- Neural connections -->
    <line x1="0" y1="0" x2="8" y2="8" stroke="url(#aiGradient)" stroke-width="2" stroke-linecap="round"/>
    <line x1="0" y1="0" x2="-8" y2="8" stroke="url(#aiGradient)" stroke-width="2" stroke-linecap="round"/>
    <line x1="0" y1="0" x2="0" y2="12" stroke="url(#aiGradient)" stroke-width="2" stroke-linecap="round"/>
    
    <!-- Secondary nodes -->
    <circle cx="8" cy="8" r="3" fill="url(#aiGradient)"/>
    <circle cx="-8" cy="8" r="3" fill="url(#aiGradient)"/>
    <circle cx="0" cy="12" r="3" fill="url(#aiGradient)"/>
  </g>
  
  <!-- Sparkle effects -->
  <g transform="translate(24, 24)">
    <path d="M0 0L2 2L0 4L-2 2Z" fill="#ffffff" opacity="0.8"/>
  </g>
  <g transform="translate(104, 48)">
    <path d="M0 0L2 2L0 4L-2 2Z" fill="#ffffff" opacity="0.6"/>
  </g>
  <g transform="translate(88, 88)">
    <path d="M0 0L2 2L0 4L-2 2Z" fill="#ffffff" opacity="0.7"/>
  </g>
</svg>
